<?xml version="1.0" encoding="UTF-8" standalone="no"?>
<svg
   height="14.907916"
   viewBox="0 0 15.907223 14.907916"
   width="15.907223"
   version="1.1"
   id="svg4"
   sodipodi:docname="error.svg"
   inkscape:version="1.1.2 (0a00cf5339, 2022-02-04)"
   xmlns:inkscape="http://www.inkscape.org/namespaces/inkscape"
   xmlns:sodipodi="http://sodipodi.sourceforge.net/DTD/sodipodi-0.dtd"
   xmlns="http://www.w3.org/2000/svg"
   xmlns:svg="http://www.w3.org/2000/svg">
  <defs
     id="defs8" />
  <sodipodi:namedview
     id="namedview6"
     pagecolor="#ffffff"
     bordercolor="#666666"
     borderopacity="1.0"
     inkscape:pageshadow="2"
     inkscape:pageopacity="0.0"
     inkscape:pagecheckerboard="0"
     showgrid="false"
     inkscape:zoom="48.5"
     inkscape:cx="7.9690722"
     inkscape:cy="7.9175258"
     inkscape:window-width="1920"
     inkscape:window-height="1011"
     inkscape:window-x="0"
     inkscape:window-y="0"
     inkscape:window-maximized="1"
     inkscape:current-layer="svg4"
     fit-margin-top="0"
     fit-margin-left="0"
     fit-margin-right="0"
     fit-margin-bottom="0" />
  <path
     d="m 7.889824,0.00166636 c -0.527344,-0.0273438 -1.039062,0.28125 -1.4375,0.96875 L 0.20232398,12.564166 c -0.535156,0.964844 0.046875,2.34375 1.09375002,2.34375 h 13.15625 c 0.980469,0 1.902344,-1.160156 1.21875,-2.34375 L 9.358574,1.0329164 C 8.960136,0.38838536 8.417168,0.02901036 7.889824,0.00166636 Z m 1.09375,3.90625004 v 5 c 0.00781,0.527344 -0.472656,1 -1,1 -0.527344,0 -1.007812,-0.472656 -1,-1 v -5 z m -1,6.9999996 c 0.550781,0 1,0.449219 1,1 0,0.550781 -0.449219,1 -1,1 -0.550781,0 -1,-0.449219 -1,-1 0,-0.550781 0.449219,-1 1,-1 z m 0,0"
     fill="#2e3436"
     id="path2"
     style="fill:#ffffff" />
</svg>
