<?xml version="1.0" encoding="UTF-8" standalone="no"?>
<svg
   width="256"
   height="256"
   version="1.1"
   id="svg12"
   sodipodi:docname="wayland.svg"
   inkscape:version="1.2.1 (9c6d41e410, 2022-07-14)"
   xmlns:inkscape="http://www.inkscape.org/namespaces/inkscape"
   xmlns:sodipodi="http://sodipodi.sourceforge.net/DTD/sodipodi-0.dtd"
   xmlns="http://www.w3.org/2000/svg"
   xmlns:svg="http://www.w3.org/2000/svg"
   xmlns:rdf="http://www.w3.org/1999/02/22-rdf-syntax-ns#"
   xmlns:cc="http://creativecommons.org/ns#"
   xmlns:dc="http://purl.org/dc/elements/1.1/">
  <defs
     id="defs16" />
  <sodipodi:namedview
     id="namedview14"
     pagecolor="#a46e66"
     bordercolor="#666666"
     borderopacity="1.0"
     inkscape:pageshadow="2"
     inkscape:pageopacity="0"
     inkscape:pagecheckerboard="true"
     showgrid="false"
     inkscape:zoom="2.2112882"
     inkscape:cx="86.827217"
     inkscape:cy="128.88415"
     inkscape:window-width="1920"
     inkscape:window-height="1011"
     inkscape:window-x="634"
     inkscape:window-y="1952"
     inkscape:window-maximized="1"
     inkscape:current-layer="svg12"
     fit-margin-top="0"
     fit-margin-left="0"
     fit-margin-right="0"
     fit-margin-bottom="0"
     inkscape:showpageshadow="2"
     inkscape:deskcolor="#a46e66" />
  <title
     id="title2">Wayland logo</title>
  <g
     id="g169"
     transform="matrix(0.99301783,0,0,0.99301783,7.7738998e-6,7.7738998e-6)">
    <circle
       cx="128.89999"
       cy="128.89999"
       style="fill:none;stroke:#ffffff;stroke-width:12;stroke-miterlimit:4;stroke-dasharray:none;stroke-opacity:1"
       id="circle4"
       r="122.9" />
    <path
       d="m 193.93486,7.243203 h 2.15166 l -1.36882,1.63254 h -0.78229 V 7.243203 M 35.536607,11.208255 v 1.866228 l -5.085242,7.464912 h -0.782289 l -0.782288,-5.83128 c 2.99859,-2.332512 5.215257,-3.498768 6.650002,-3.498768 m 185.409,2.5662 c 4.43334,2.07e-4 6.91004,3.343704 7.43193,10.03002 l -3.71642,31.49328 h 1.36882 l 2.93358,-2.332512 h 0.78229 v 0.699754 c -4.04237,2.954952 -7.95382,11.04012 -11.73799,24.26424 -1.43475,11.3568 -3.84644,21.850924 -7.2369,31.493291 -2.99951,9.95248 -4.49835,19.13184 -4.49835,27.52932 l -5.67214,16.56564 c -1.5e-4,1.39994 2.15166,2.79879 6.45407,4.19874 -0.78248,3.26617 -1.95573,4.89871 -3.52049,4.89871 v 0.933 h 1.36883 v 0.69976 c -1.6e-4,1.71116 -2.21667,2.5662 -6.65001,2.5662 l 0.78229,0.933 v 3.26617 h -1.36882 c 0.91258,3.26617 2.86857,4.89871 5.86716,4.89871 v 1.63254 h -5.86716 v 0.93301 c 1.95572,4e-5 2.93358,1.39994 2.93358,4.19874 l -8.21476,3.26617 0.78229,0.93301 v 0.69975 c -1.5e-4,1.08861 -0.97786,1.63254 -2.93359,1.63254 v 0.933 c 2.47762,4e-5 3.71551,0.54437 3.71643,1.63254 -3.52049,1.39995 -8.14976,8.31995 -13.88966,20.75892 -5.86716,11.04012 -10.95057,16.56564 -15.25389,16.56564 h -1.56476 c -3.25954,-2.48866 -5.93309,-10.72999 -8.01883,-24.72288 -8.34478,-21.30492 -12.51625,-33.81924 -12.51625,-37.55388 -9e-5,-9.64126 -2.67264,-19.90716 -8.01882,-30.7944 -1.43475,-4.82118 -2.41261,-10.88505 -2.93359,-18.19272 l -3.52048,-0.933 c -8.86667,16.01964 -13.49594,28.53396 -13.88965,37.55388 -2.47761,5.28746 -4.43334,11.66256 -5.86717,19.13184 5.34619,1.71116 8.01883,3.3437 8.01883,4.89871 v 0.93301 c -4.17239,-0.62201 -7.10597,-1.7887 -8.80075,-3.49877 -1.8257,4.19874 -4.2374,15.86676 -7.2369,34.98768 -2.346683,8.86376 -5.281184,13.30056 -8.80075,13.30056 -9.906792,-3.88752 -18.192972,-10.26371 -24.840228,-19.13184 -1.042868,2e-5 -2.73856,-4.43243 -5.085242,-13.30056 -1.43383,3e-5 -2.412606,-4.43243 -2.933583,-13.30056 -4.954311,-12.59076 -8.344778,-26.98332 -10.172316,-43.15584 v -24.26424 h -0.782288 l -3.520482,0.933 v -0.933 c 9e-6,-1.0884 1.173799,-1.63254 3.520482,-1.63254 L 47.061814,95.423732 v -10.96368 l -5.672142,-34.98768 v -14.92764 c 2.477614,-9.330048 6.780018,-13.99944 12.90996,-13.99944 h 41.073816 v 1.63254 c -3.259536,0.155719 -5.476204,1.010973 -6.650003,2.5662 -2.477613,-1.710072 -4.889304,-2.5662 -7.236902,-2.5662 h -8.018825 l -4.498343,0.699753 -0.782289,-0.699753 H 67.60037 l -5.867165,0.699753 -2.933582,-0.699753 -2.15166,0.699753 -2.346683,-0.699753 c 9.52224,12.43788 15.125712,22.94292 16.819572,31.49328 h 6.650003 v 1.63254 h -5.085243 v 1.866228 c 1.955722,7.153692 3.390467,10.729992 4.302405,10.729992 h 1.56476 l 3.520482,-0.933005 0.782289,0.933005 0.782288,-0.933005 0.782289,0.933005 v 0.699753 c -2.607629,1.866228 -4.368327,4.432428 -5.280265,7.697508 h -0.586717 v 1.63254 h 1.368822 c 1.825707,25.967767 5.215258,45.645607 10.172316,59.011687 l 2.933583,2.33251 h 1.56476 c 1.955724,9e-5 6.063106,-9.09745 12.323976,-27.28908 4.04238,-8.24132 6.97596,-15.473647 8.80075,-21.698045 l -0.78229,-2.5662 c 4.04237,-6.064968 8.21476,-9.097452 12.51625,-9.097452 h 1.36882 c 2.73765,1.53e-4 4.69429,1.711164 5.86717,5.131308 3.6505,5.1324 6.58408,12.831002 8.80075,23.095809 l 10.95057,24.26424 c 1.43383,1.71116 2.15166,3.65492 2.15166,5.83128 4.04146,9.17498 7.69287,15.24432 10.95058,18.19272 h 2.34668 c 2.73765,6e-5 6.38906,-11.3568 10.95058,-34.05948 0.78219,1e-4 2.93358,-6.06497 6.45406,-18.19272 v -0.93301 l -12.32397,-1.63254 -2.93359,0.93301 h -3.71642 v -1.866237 l 7.43193,-0.69975 h 14.47563 C 195.83198,78.62768 200.98406,63.0776 205.68109,52.03748 207.24585,29.3348 209.3966,17.978 212.13516,17.978 l 8.80074,-4.19874 m -41.6598,2.5662 c -0.78247,2.177448 -2.47761,3.266172 -5.08524,3.266172 v -1.63254 l 5.08524,-1.63254 m -73.73326,4.19874 h 19.74949 v 1.63254 l -4.49834,0.699753 -4.30241,-0.699753 -3.71642,1.63254 -1.36882,-1.63254 h -5.86717 v -1.63254 m 40.83521,13.295318 h 2.15166 v 0.699754 c -1e-4,1.088724 -0.71728,1.63254 -2.15166,1.63254 l -0.78228,0.933005 v 0.933004 l -2.15166,-0.933004 v -1.63254 l 2.93358,-1.63254 m -10.95058,9.097452 v 0.933004 c -9e-5,1.243788 -3.12952,2.5662 -9.3849,3.965052 v -1.63254 l 4.30241,-2.332512 0.78229,0.699754 h 0.58671 l 3.71642,-1.63254 M 7.7001703,51.335979 v 0.699754 l -1.56476,1.63254 -0.586717,-0.699754 v -0.933005 l 0.586717,-0.699753 h 1.56476 m 106.5758397,0 v 0.699753 c -2.73856,2.488668 -7.17098,4.743648 -13.30367,6.76494 v -1.63254 c 1.04287,1.64e-4 1.56476,-0.855145 1.56476,-2.5662 l 11.738,-3.266172 m 37.1642,8.163792 0.78229,0.933005 v 0.699754 l -1.36882,1.866228 h -0.78229 l -1.56476,-1.866228 v -0.699754 l 2.93358,-0.933005 m 26.99189,0.933005 h 0.78229 v 0.699754 l -1.36883,1.866228 h -0.78228 v -0.933005 l 1.36882,-1.63254 m -12.32398,11.66256 2.93358,2.332512 c -0.5217,1.711164 -1.95572,2.5662 -4.3024,2.5662 l -1.56476,-2.5662 c -1.2e-4,-0.777395 0.97786,-1.555008 2.93358,-2.332512 m 17.59783,10.729992 0.58672,0.933005 v 0.699753 l -0.58672,0.933005 h -1.56476 v -0.933005 l 1.56476,-1.63254 m -27.77014,8.39748 v 0.699754 l -3.71642,3.498768 h -2.15166 v -0.933005 c -1e-4,-1.399944 1.95572,-2.487576 5.86716,-3.266172 M 34.708539,123.64386 h 0.782288 v 0.69975 c -1.955721,5.1324 -3.650497,8.24242 -5.085242,9.33005 h -1.56476 v -3.49877 l 5.867164,-6.53125 m 95.680201,38.95164 h 0.78229 v 1.63254 l -5.86716,3.49877 -0.78229,-0.93301 v -1.63254 l 5.86716,-2.5662 m -80.380525,10.96368 h 1.368822 l 2.346683,9.09745 h -1.56476 l -2.15166,-8.39748 v -0.69975 m 78.22887,10.72999 h 0.58671 l 2.34669,2.5662 -0.78229,0.69976 h -0.78229 l -1.36882,-2.33252 v -0.933"
       id="path6"
       style="fill:#ffffff;fill-opacity:1;stroke-width:0.999918"
       sodipodi:nodetypes="cccccccccccccccccccccccccccccccccccccccccccsccccccccscccccccccccscccccscccscccccccccccccsccccccccccccccccscccccccccccccccccccccccccccccccccccccccccccccccccccccccccccccccccccccccccccccccccccccccccccccccccccccccccccccccccccccccccc" />
  </g>
  <metadata
     id="metadata833">
    <rdf:RDF>
      <cc:Work
         rdf:about="">
        <dc:title>Wayland logo</dc:title>
      </cc:Work>
    </rdf:RDF>
  </metadata>
</svg>
